<svg xmlns="http://www.w3.org/2000/svg" viewBox="6.531 2.095 170.323 66.906"><g fill="#002B55"><path d="M38.86 32.805h-9.805v-1.524h3.09V11.015L22.052 33.217 11.92 10.561v20.721h3.13v1.524H6.73v-1.524h3.131V7.141H6.729V5.617h6.632l9.393 21.008 9.68-21.008h6.426v1.524h-3.089v24.141h3.089v1.523z"/><path d="M60.155 31.652l-5.931 1.484h-.741V28.48c-2.966 3.584-4.901 4.861-7.455 4.861-3.089 0-4.984-2.019-4.984-5.314V16.452h-3.583v-1.113l5.931-1.606h.781v13.799c0 2.511.99 3.748 3.008 3.748 1.524 0 2.554-.659 4.407-2.842.413-.454 1.03-1.154 1.894-2.101v-9.885h-3.131v-1.277l5.438-1.441h.783V30.5h3.583v1.152zM69.877 32.805h-9.309v-1.524h3.13V5.166h-3.625V4.051l5.931-1.605h.783v28.836h3.088l.002 1.523zM80.587 31.075c-2.183 1.729-3.006 2.101-4.531 2.101-2.39 0-3.83-1.484-3.83-3.996V16.452h-3.585v-1.113l3.585-.905V8.748h2.966v5.806H80.3v1.896h-5.108v12.358c0 1.566.535 2.142 1.894 2.142.865 0 1.401-.166 2.801-.989l.7 1.114zM91.298 32.805h-9.352v-1.524h3.132V16.452h-3.585v-1.113l5.931-1.606h.741v17.548h3.131l.002 1.524zm-4.862-28.3c1.237 0 2.183.949 2.183 2.143 0 1.236-.946 2.185-2.183 2.185-1.195 0-2.142-.949-2.142-2.185 0-1.195.948-2.143 2.142-2.143zM98.178 24.157h-5.574V21.94h5.574v2.217zM109.422 32.805H99.245v-1.524h3.089V7.141h-3.089V5.617h11.781c4.779 0 8.075 3.214 8.075 7.828s-3.914 8.198-9.021 8.198c-.784 0-1.235-.042-2.308-.249v-1.442c.536.124.74.124 1.112.124 3.544 0 6.47-2.967 6.47-6.632 0-3.294-2.187-5.932-4.903-5.932h-4.493v23.769h3.503l-.039 1.524zM131.088 32.805h-10.175v-1.524h3.129V16.452h-3.584v-1.113l5.931-1.606h.741v4.612c2.965-3.79 4.035-4.696 5.519-4.696.495 0 .908.125 1.156.372l1.274 1.112-2.389 2.882c-.823-.781-1.402-1.151-1.812-1.151-.742 0-1.484.699-3.747 3.46v10.958h3.955l.002 1.523zM149.829 31.075c-3.089 1.77-4.532 2.266-6.92 2.266-5.229 0-8.941-4.037-8.941-9.722 0-5.766 3.749-9.969 8.859-9.969 4.448 0 7.498 3.047 7.498 7.498v1.113h-12.979v.453c0 5.147 2.72 8.734 6.632 8.734 1.648 0 2.76-.413 5.067-1.895l.784 1.522zm-2.881-10.462v-.989c0-2.473-1.69-4.244-4.08-4.244-3.007 0-5.107 2.019-5.479 5.232l9.559.001zM162.271 31.075c-2.185 1.729-3.007 2.101-4.533 2.101-2.389 0-3.828-1.484-3.828-3.996V16.452h-3.585v-1.113l3.585-.905V8.748h2.966v5.806h5.106v1.896h-5.106v12.358c0 1.566.535 2.142 1.892 2.142.867 0 1.402-.166 2.802-.989l.701 1.114zM165.276 33.176h-1.649v-5.849h1.896v1.113c0 1.771 2.308 3.337 4.861 3.337 2.267 0 3.954-1.196 3.954-2.842 0-1.649-1.155-2.555-5.479-4.245-3.954-1.524-5.356-3.046-5.356-5.642 0-3.213 2.596-5.398 6.385-5.398 1.811 0 3.212.454 4.366 1.402l.25-1.484h1.769l-.988 5.931h-1.771c.166-.452.248-.99.248-1.359 0-1.607-1.853-2.925-4.078-2.925-2.139 0-3.543 1.153-3.543 2.925 0 1.77.289 1.977 5.274 3.995 4.037 1.606 5.314 2.967 5.314 5.602 0 3.295-2.556 5.603-6.222 5.603-2.307 0-4.038-.535-5.231-1.649v1.485z"/></g><path fill="#62BB46" d="M141.494 2.743l-7.433 8.215h3.247l5.488-5.775.006.009 5.481 5.769h3.244l-7.356-8.218z"/><g fill="#62BB46"><path d="M18.907 53.507V41.43c-.146.71-.23.94-.522 1.691l-4.073 10.385h-1.567L8.94 43.395c-.292-.774-.376-.983-.543-1.839v11.951H6.83V39.716h2.362l4.2 11.033c.209.563.209.647.272 1.045.084-.544.104-.669.251-1.045l4.346-11.033h2.361v13.791h-1.715zM37.228 53.779c-4.012 0-6.937-3.008-6.937-7.166 0-4.137 2.925-7.146 6.937-7.146s6.916 3.008 6.916 7.146c-.001 4.157-2.904 7.166-6.916 7.166zm0-12.809c-2.779 0-5.057 2.548-5.057 5.642 0 3.113 2.277 5.662 5.057 5.662 2.758 0 5.036-2.549 5.036-5.662-.001-3.094-2.279-5.642-5.036-5.642zM61.169 53.507l-3.802-5.913h-1.839v5.913h-1.714V39.716h4.2c1.671 0 2.465.251 3.26 1.024.669.647 1.087 1.65 1.087 2.696a3.95 3.95 0 0 1-1.212 2.862c-.564.563-1.066.816-2.09 1.045l4.074 6.163h-1.964zm-1.4-11.952c-.418-.334-.773-.397-2.006-.397h-2.235v4.993h2.235c1.818 0 2.758-.919 2.758-2.696-.001-.875-.251-1.503-.752-1.9zM76.565 41.159v12.348h-1.714V41.159h-4.597v-1.443H81.16v1.443h-4.595zM99.567 53.318c-.941.292-2.32.46-3.47.46-4.157 0-7.354-3.113-7.354-7.188 0-4.095 3.093-7.104 7.292-7.104.983 0 2.133.125 2.864.313.605.168.918.314 1.672.731l-.648 1.42c-.334-.187-.563-.291-.731-.375-.793-.333-1.881-.544-2.989-.544-1.944 0-3.196.523-4.262 1.755a5.702 5.702 0 0 0-1.359 3.678c0 3.322 2.549 5.767 5.997 5.767.688 0 1.171-.062 2.278-.292v-4.597h1.714v5.642c-.441.167-.774.272-1.004.334zM119.265 53.507l-1.419-4.073h-5.578l-1.421 4.073h-1.839l5.141-14.186h1.838l5.119 14.186h-1.841zm-4.2-11.952l-2.257 6.31h4.493l-2.236-6.31zM139.488 53.318c-.942.292-2.318.46-3.469.46-4.158 0-7.354-3.113-7.354-7.188 0-4.095 3.091-7.104 7.293-7.104.981 0 2.13.125 2.861.313.606.168.92.314 1.672.731l-.646 1.42c-.333-.187-.565-.291-.733-.375-.793-.333-1.879-.544-2.987-.544-1.943 0-3.198.523-4.263 1.755a5.702 5.702 0 0 0-1.358 3.678c0 3.322 2.549 5.767 5.997 5.767.689 0 1.171-.062 2.276-.292v-4.597h1.714v5.642a11 11 0 0 1-1.003.334zM151.039 53.507V39.716h7.752v1.443h-6.039v4.597h4.994v1.442h-4.994v4.869h6.228v1.442l-7.941-.002zM175.607 42.056c-.712-.417-1.003-.563-1.442-.711a7.317 7.317 0 0 0-1.902-.291c-1.567 0-2.632.773-2.632 1.943 0 1.023.605 1.546 3.405 3.03.942.501 1.672.961 2.174 1.401.669.563 1.065 1.504 1.065 2.507 0 2.361-1.756 3.844-4.533 3.844-.941 0-1.819-.168-2.55-.46-.523-.209-.877-.417-1.776-1.023l.878-1.358c.773.522 1.106.71 1.587.898.605.23 1.274.356 1.986.356 1.629 0 2.612-.773 2.612-2.089 0-.399-.062-.732-.21-.983-.23-.418-.627-.816-1.171-1.129-.229-.126-1.003-.523-2.298-1.232-2.069-1.107-2.947-2.194-2.947-3.615 0-2.193 1.816-3.656 4.556-3.656.793 0 1.607.104 2.318.333.563.187.898.355 1.672.815l-.792 1.42z"/></g><path fill="#002B55" d="M176.126 58.2H6.827v-.387h169.299z"/><path fill="#62BB46" d="M141.363 2.661l-7.419 8.199h3.24l5.478-5.764.007.009 5.47 5.757h3.236l-7.34-8.201z"/><g fill="#002B55"><path d="M12.196 68.649v-5.375a3.612 3.612 0 0 1-.233.753L10.15 68.65h-.697L7.76 64.149c-.13-.344-.168-.437-.242-.819v5.32h-.697v-6.137h1.051l1.869 4.91c.093.251.093.288.12.465.037-.243.047-.298.112-.465l1.934-4.91h1.051v6.137l-.762-.001zM23.512 68.77c-1.785 0-3.087-1.339-3.087-3.19 0-1.842 1.302-3.18 3.087-3.18s3.078 1.339 3.078 3.18c0 1.85-1.292 3.19-3.078 3.19zm0-5.702c-1.237 0-2.251 1.134-2.251 2.511 0 1.385 1.013 2.52 2.251 2.52 1.227 0 2.241-1.135 2.241-2.52 0-1.376-1.013-2.511-2.241-2.511zM37.33 68.649l-1.692-2.632h-.818v2.632h-.763v-6.137h1.87c.744 0 1.097.111 1.45.455.297.289.484.735.484 1.2 0 .483-.196.948-.54 1.273-.251.251-.474.363-.929.465l1.813 2.744h-.875zm-.624-5.32c-.185-.149-.344-.176-.892-.176h-.995v2.223h.995c.809 0 1.228-.41 1.228-1.2 0-.391-.112-.67-.336-.847zM47.345 63.152v5.496h-.763v-5.496h-2.046v-.641h4.854v.641h-2.045zM60.744 68.565c-.418.13-1.032.205-1.543.205-1.85 0-3.274-1.386-3.274-3.199 0-1.823 1.376-3.163 3.246-3.163.437 0 .948.056 1.274.139.27.075.409.14.744.326l-.289.633c-.149-.084-.251-.131-.325-.168-.353-.149-.836-.243-1.33-.243-.864 0-1.423.233-1.897.782a2.537 2.537 0 0 0-.604 1.636c0 1.479 1.134 2.567 2.669 2.567.307 0 .521-.028 1.013-.13v-2.046h.763v2.511a5.146 5.146 0 0 1-.447.15zM72.675 68.649l-.632-1.813h-2.484l-.632 1.813h-.819l2.287-6.314h.819l2.279 6.314h-.818zm-1.869-5.32l-1.005 2.809h2l-.995-2.809zM84.837 68.565c-.419.13-1.032.205-1.544.205-1.85 0-3.274-1.386-3.274-3.199 0-1.823 1.376-3.163 3.246-3.163.437 0 .949.056 1.274.139.27.075.41.14.744.326l-.289.633c-.149-.084-.251-.131-.325-.168-.354-.149-.837-.243-1.33-.243-.865 0-1.423.233-1.897.782a2.532 2.532 0 0 0-.604 1.636c0 1.479 1.135 2.567 2.669 2.567.306 0 .521-.028 1.013-.13v-2.046h.763v2.511a4.93 4.93 0 0 1-.446.15zM93.141 68.649v-6.137h3.45v.641h-2.688v2.046h2.223v.641h-2.223v2.166h2.771v.642h-3.532v.001zM116.08 68.649l-.631-1.813h-2.482l-.634 1.813h-.818l2.287-6.314h.82l2.277 6.314h-.819zm-1.869-5.32l-1.004 2.809h1.999l-.995-2.809zM128.244 68.565c-.419.13-1.032.205-1.545.205-1.85 0-3.274-1.386-3.274-3.199 0-1.823 1.377-3.163 3.246-3.163.438 0 .95.056 1.275.139.27.075.409.14.744.326l-.29.633c-.148-.084-.251-.131-.325-.168-.355-.149-.837-.243-1.33-.243-.865 0-1.423.233-1.898.782a2.53 2.53 0 0 0-.603 1.636c0 1.479 1.135 2.567 2.669 2.567.306 0 .52-.028 1.013-.13v-2.046h.763v2.511a5.273 5.273 0 0 1-.445.15zM136.547 68.649v-6.137h3.45v.641h-2.688v2.046h2.223v.641h-2.223v2.166h2.772v.642h-3.534v.001zM151.692 68.704l-3.095-4.79c-.029-.047-.075-.12-.121-.213-.036-.065-.066-.102-.075-.14a1.043 1.043 0 0 1-.092-.233v5.32h-.762V62.51h.994l3.042 4.676c.028.037.056.094.083.149.039.094.039.102.112.279.009.019.02.056.037.093V62.51h.762v6.192l-.885.002zM164.61 63.562c-.465-.326-.912-.466-1.506-.466-1.302 0-2.231 1.005-2.231 2.409 0 1.543.939 2.556 2.38 2.556.521 0 .92-.083 1.414-.289l.214.596c-.373.167-.522.223-.829.297a3.352 3.352 0 0 1-.845.102c-1.851 0-3.163-1.33-3.163-3.219 0-1.795 1.33-3.152 3.087-3.152.4 0 .791.074 1.154.205.269.102.4.168.707.381l-.382.58zM174.077 65.784v2.864h-.763V65.84l-2.046-3.328h.818l1.647 2.631 1.693-2.631h.808l-2.157 3.272z"/></g></svg>
